<?xml version="1.0" encoding="UTF-8"?>
<!DOCTYPE svg PUBLIC "-//W3C//DTD SVG 1.1//EN" "http://www.w3.org/Graphics/SVG/1.1/DTD/svg11.dtd">
<!-- Creator: CorelDRAW X8 -->
<svg xmlns="http://www.w3.org/2000/svg" xml:space="preserve" width="233mm" height="297mm" version="1.1" style="shape-rendering:geometricPrecision; text-rendering:geometricPrecision; image-rendering:optimizeQuality; fill-rule:evenodd; clip-rule:evenodd"
viewBox="0 0 23300 29700"
 xmlns:xlink="http://www.w3.org/1999/xlink"
 data-name="Layer 1">
 <defs>
  <style type="text/css">
   <![CDATA[
    .fil0 {fill:white}
   ]]>
  </style>
 </defs>
 <g id="Слой_x0020_1">
  <metadata id="CorelCorpID_0Corel-Layer"/>
  <path class="fil0" d="M11467 15165c8,0 16,0 24,0 175,0 348,45 501,130l0 348c-137,-92 -299,-142 -465,-142 -2,0 -4,0 -5,0 -16,-1 -31,-2 -47,-2 -310,0 -562,252 -562,562 0,311 252,562 562,562 16,0 31,0 47,-2 173,0 344,-45 496,-130l0 350c-168,77 -351,117 -535,117 -10,0 -20,0 -29,0 -20,1 -40,2 -59,2 -475,0 -860,-385 -860,-860 0,-8 1,-17 1,-25 0,-9 -1,-19 -1,-29 0,-487 396,-882 883,-882 16,0 33,0 49,1l0 0z"/>
  <path class="fil0" d="M13952 16643c39,-2 77,-9 113,-22l0 273c-75,28 -154,42 -234,42 -3,0 -5,0 -7,0 -11,1 -22,2 -32,2 -132,0 -252,-77 -308,-196 -176,142 -396,220 -622,220 -7,0 -13,0 -20,0 -309,0 -595,-170 -595,-521 0,-436 404,-570 758,-570 149,2 298,19 444,50l0 -60c0,-212 -156,-362 -448,-362 -211,1 -419,45 -612,131l0 -348c209,-72 430,-110 651,-113 482,0 778,229 778,745l0 610c0,4 0,7 0,11 0,61 49,110 110,110 8,0 16,-1 24,-2l0 0zm-638 -294l0 -175c-121,-26 -245,-40 -369,-43 -745,18 -258,825 369,218z"/>
  <path class="fil0" d="M16058 14432l0 2481 -342 0 0 -270c-150,198 -384,315 -632,315 -7,0 -13,0 -20,0 -472,-31 -839,-423 -839,-897 0,-473 367,-865 839,-896 9,0 18,0 27,0 224,0 438,97 586,266l0 -999 389 0 -8 0zm-925 1066c-312,-1 -564,252 -564,563 0,312 252,564 564,564 1,0 3,0 4,0 235,0 447,-141 538,-358l0 -414c-95,-215 -307,-355 -542,-356l0 1z"/>
  <path class="fil0" d="M17287 15165c677,0 910,546 801,1038l-1279 0c42,306 340,432 651,432 1,0 3,0 4,0 185,0 368,-41 535,-121l0 327c-181,77 -376,117 -573,117 -13,0 -26,0 -38,0 -521,0 -972,-298 -972,-897 -1,-14 -1,-28 -1,-43 0,-471 382,-853 853,-853 7,0 13,0 19,0l0 0zm505 983c0,-1702 0,2181 0,0zm-445 -710c285,0 516,234 516,523l-1032 0c0,-289 231,-523 516,-523z"/>
  <path class="fil0" d="M18475 16913l0 -1701 336 0 0 212c145,-162 351,-256 568,-259 12,-1 25,-1 37,-1 201,0 387,103 494,273 153,-167 368,-265 595,-272 8,0 16,0 24,0 345,0 625,279 625,624 0,20 -2,40 -3,60l0 1064 -389 0 0 -1052c1,-11 1,-22 1,-33 0,-180 -145,-325 -324,-325 -5,0 -9,0 -14,0 -167,11 -322,95 -422,230 0,39 0,78 0,116l0 1064 -389 0 0 -1052c2,-11 2,-22 2,-33 0,-180 -145,-325 -325,-325 -4,0 -9,0 -13,0 -182,15 -348,112 -451,263l0 1149 -389 0 37 -2z"/>
  <path class="fil0" d="M22825 15212l389 0 -798 1931c-184,443 -425,583 -684,583 -75,-1 -151,-11 -224,-29l0 -323c55,17 113,25 170,25 1,0 2,0 3,0 185,0 323,-130 422,-389l35 -85 -809 -1715 415 0 583 1283 498 -1281z"/>
  <path class="fil0" d="M9056 11453l0 972c145,-148 343,-232 550,-233 14,-1 27,-1 40,-1 366,0 663,297 663,663 0,11 0,21 -1,32l0 1052 -389 0 0 -1003c2,-13 3,-27 3,-40 0,-204 -166,-369 -370,-369 -7,0 -14,0 -21,0 -195,12 -372,118 -475,284l0 1128 -389 0 0 -2485 389 0z"/>
  <path class="fil0" d="M11345 11626l0 607 616 0 0 332 -616 0 0 778c0,224 103,298 323,298 117,-1 235,-24 344,-69l0 327c-144,49 -295,74 -447,74 -4,0 -7,0 -10,0 -21,3 -43,4 -64,4 -288,0 -521,-233 -521,-521 0,-14 0,-29 1,-43l0 -852 -311 0 0 -332 306 0 0 -513 379 -90z"/>
  <path class="fil0" d="M12447 13934l0 -1701 337 0 0 212c144,-162 350,-256 567,-259 12,-1 25,-1 37,-1 201,0 388,103 494,273 154,-167 368,-265 595,-272 8,0 17,0 25,0 344,0 624,279 624,624 0,20 -1,40 -3,61l0 1063 -389 0 0 -1052c1,-11 2,-22 2,-33 0,-179 -146,-325 -325,-325 -5,0 -9,0 -14,0 -167,11 -321,95 -421,230 0,39 0,78 0,117l0 1063 -389 0 0 -1052c1,-11 1,-22 1,-33 0,-179 -145,-325 -324,-325 -5,0 -9,0 -14,0 -182,15 -348,112 -451,263l0 1149 -389 0 37 -2z"/>
  <rect class="fil0" x="15679" y="11451" width="379" height="2481"/>
  <path class="fil0" d="M4152 11159l-31 0 -2971 312 0 5444 2971 1768 2971 -1768 0 -5444 -2940 -312zm2551 5532l-2582 1537 -2582 -1537 0 -2232 2570 1530 0 279 -1763 -1050 0 268 1771 1063 0 284 -1769 -1054 0 269 1771 1063 0 0 1787 -1069 0 -270 0 0 0 -879 797 -477 0 2270 0 5zm0 -2558l-709 416 0 0 -327 194 -1556 -926 0 269 1330 791 -11 0 -29 18 -195 111 -1097 -654 0 269 866 515 -204 136 0 0 -654 -389 0 268 430 253 -438 263 -2558 -1521 2560 -1540 0 0 2592 1527zm0 -271l-2595 -1530 0 0 -2567 1528 0 -2041 2582 -271 2582 271 0 2043 -2 0z"/>
  <path class="fil0" d="M10258 16643c38,-2 76,-9 113,-22l0 273c-75,28 -155,42 -235,42 -2,0 -4,0 -7,0 -10,1 -21,2 -32,2 -132,0 -252,-77 -308,-196 -175,142 -395,220 -621,220 -7,0 -14,0 -20,0 -310,0 -595,-170 -595,-521 0,-436 404,-570 758,-570 149,2 298,19 443,50l0 -60c0,-212 -155,-362 -447,-362 -211,1 -420,45 -612,131l0 -348c209,-72 429,-110 651,-113 482,0 778,229 778,745l0 610c-1,4 -1,7 -1,11 0,61 50,110 111,110 8,0 16,-1 24,-2l0 0zm-638 -294l0 -175c-121,-26 -246,-40 -369,-43 -745,18 -258,825 369,218z"/>
 </g>
</svg>
